<?xml version="1.0" encoding="UTF-8" standalone="no"?>
<svg
   xmlns:osb="http://www.openswatchbook.org/uri/2009/osb"
   xmlns:dc="http://purl.org/dc/elements/1.1/"
   xmlns:cc="http://creativecommons.org/ns#"
   xmlns:rdf="http://www.w3.org/1999/02/22-rdf-syntax-ns#"
   xmlns:svg="http://www.w3.org/2000/svg"
   xmlns="http://www.w3.org/2000/svg"
   xmlns:xlink="http://www.w3.org/1999/xlink"
   id="svg59"
   version="1.1"
   viewBox="0 0 67.733331 67.733331"
   height="256"
   width="256">
  <defs
     id="defs53">
    <linearGradient
       id="linearGradient3016">
      <stop
         style="stop-color:#2f2f2f;stop-opacity:1;"
         offset="0"
         id="stop3012" />
      <stop
         style="stop-color:#2f2f2f;stop-opacity:0;"
         offset="1"
         id="stop3014" />
    </linearGradient>
    <linearGradient
       id="linearGradient3004"
       osb:paint="solid">
      <stop
         style="stop-color:#2f2f2f;stop-opacity:1;"
         offset="0"
         id="stop3002" />
    </linearGradient>
    <marker
       style="overflow:visible"
       id="TriangleInL"
       refX="0.0"
       refY="0.0"
       orient="auto">
      <path
         transform="scale(-0.8)"
         style="fill-rule:evenodd;stroke:#2f2f2f;stroke-width:1pt;stroke-opacity:1;fill:#2f2f2f;fill-opacity:1"
         d="M 5.77,0.0 L -2.88,5.0 L -2.88,-5.0 L 5.77,0.0 z "
         id="path1284" />
    </marker>
    <marker
       style="overflow:visible"
       id="Arrow1Lstart"
       refX="0.0"
       refY="0.0"
       orient="auto">
      <path
         transform="scale(0.8) translate(12.5,0)"
         style="fill-rule:evenodd;stroke:#2f2f2f;stroke-width:1pt;stroke-opacity:1;fill:#2f2f2f;fill-opacity:1"
         d="M 0.0,0.0 L 5.0,-5.0 L -12.5,0.0 L 5.0,5.0 L 0.0,0.0 z "
         id="path1151" />
    </marker>
    <linearGradient
       xlink:href="#linearGradient3016"
       id="linearGradient3052"
       x1="-13.229166"
       y1="-23.8125"
       x2="-63.499996"
       y2="-23.8125"
       gradientUnits="userSpaceOnUse" />
    <linearGradient
       gradientTransform="translate(1.8962883e-8,-0.26458271)"
       xlink:href="#linearGradient3016"
       id="linearGradient3054"
       gradientUnits="userSpaceOnUse"
       x1="54.239582"
       y1="46.566666"
       x2="3.9687498"
       y2="46.566666" />
  </defs>
  <metadata
     id="metadata56">
    <rdf:RDF>
      <cc:Work
         rdf:about="">
        <dc:format>image/svg+xml</dc:format>
        <dc:type
           rdf:resource="http://purl.org/dc/dcmitype/StillImage" />
        <dc:title></dc:title>
      </cc:Work>
    </rdf:RDF>
  </metadata>
  <g
     style="display:inline"
     id="layer1">
    <path
       id="path1009"
       d="M 0,33.866666 V 0 H 33.866664 67.733331 V 33.866666 67.73333 H 33.866664 0 Z"
       style="display:inline;opacity:0.995;fill:#2f2f2f;fill-opacity:1;stroke-width:0.151529" />
  </g>
  <g
     style="display:inline"
     id="layer2">
    <rect
       y="2.1166666"
       x="2.1166666"
       height="63.499996"
       width="63.499996"
       id="rect119"
       style="display:inline;fill:#f5f5f5;fill-opacity:1;stroke-width:0.282222" />
  </g>
  <g
     style="display:inline"
     id="layer3">
    <path
       id="path184"
       d="M 45.252875,47.017345 V 30.534689 H 38.501438 31.749999 V 28.49651 26.458332 h 15.875003 15.874996 v 2.038178 2.038179 H 56.839801 50.1796 v 16.482656 16.482652 h -2.463363 -2.463362 z"
       style="display:inline;fill:#2f2f2f;fill-opacity:1;stroke-width:0.179833" />
  </g>
  <g
     style="display:inline"
     id="layer4">
    <path
       style="display:inline;fill:#2f2f2f;fill-opacity:1;fill-rule:evenodd;stroke:none;stroke-width:1.16721;stroke-linecap:square;stroke-miterlimit:4;stroke-dasharray:none;stroke-opacity:1"
       d="m 33.866666,13.229166 c 0,-4.3656243 0.02112,-7.9374995 0.04694,-7.9374995 0.02581,0 1.811755,1.7895679 3.968748,3.9768174 l 3.92181,3.9768171 -3.96875,3.960683 -3.968748,3.960682 z"
       id="path2911" />
    <path
       style="fill:#2f2f2f;fill-opacity:1;fill-rule:evenodd;stroke:none;stroke-width:0.366352;stroke-linecap:square;stroke-miterlimit:4;stroke-dasharray:none;stroke-opacity:1"
       d="m 29.874876,58.476991 -3.94571,-3.96077 3.132574,-3.157511 c 1.722913,-1.736632 3.508853,-3.52528 3.968751,-3.974776 l 0.836175,-0.817269 v 7.939449 c 0,4.366697 -0.01037,7.937693 -0.02303,7.93555 -0.01268,-0.002 -1.798609,-1.786248 -3.968751,-3.964673 z"
       id="path2917" />
    <path
       style="fill:none;fill-opacity:1;fill-rule:evenodd;stroke:url(#linearGradient3052);stroke-width:4.23333;stroke-linecap:square;stroke-miterlimit:4;stroke-dasharray:none;stroke-opacity:1"
       id="path2931"
       d="m -13.229168,-32.014732 a 19.84375,19.84375 0 0 1 -14.70781,19.16759 19.84375,19.84375 0 0 1 -22.321132,-9.245716"
       transform="matrix(0,-1,-1,0,0,0)" />
    <path
       style="display:inline;opacity:1;fill:none;fill-opacity:1;fill-rule:evenodd;stroke:url(#linearGradient3054);stroke-width:4.23333;stroke-linecap:square;stroke-miterlimit:4;stroke-dasharray:none;stroke-opacity:1"
       id="path2963"
       d="M 54.472443,35.718746 A 19.84375,19.84375 0 0 1 39.764633,54.886337 19.84375,19.84375 0 0 1 17.443501,45.640621"
       transform="matrix(0,1,1,0,0,0)" />
  </g>
</svg>
